<svg width="17" height="17" viewBox="0 0 17 17" fill="none" xmlns="http://www.w3.org/2000/svg">
<g clip-path="url(#clip0_1_57)">
<path d="M8.65381 2.30713C9.12549 2.32764 9.48438 2.53271 9.73047 2.92236L16.375 14.2427C16.5801 14.6528 16.5801 15.063 16.375 15.4731C16.1289 15.8628 15.77 16.0679 15.2983 16.0884H2.00928C1.5376 16.0679 1.17871 15.8628 0.932617 15.4731C0.727539 15.063 0.727539 14.6528 0.932617 14.2427L7.60791 2.92236C7.854 2.53271 8.20264 2.32764 8.65381 2.30713ZM8.65381 6.24463C8.20264 6.28564 7.95654 6.53174 7.91553 6.98291V10.4282C7.95654 10.8794 8.20264 11.1255 8.65381 11.1665C9.10498 11.1255 9.35107 10.8794 9.39209 10.4282V6.98291C9.35107 6.53174 9.10498 6.28564 8.65381 6.24463ZM9.63818 13.1353C9.63818 12.8481 9.5459 12.6123 9.36133 12.4277C9.17676 12.2432 8.94092 12.1509 8.65381 12.1509C8.3667 12.1509 8.13086 12.2432 7.94629 12.4277C7.76172 12.6123 7.66943 12.8481 7.66943 13.1353C7.66943 13.4224 7.76172 13.6582 7.94629 13.8428C8.13086 14.0273 8.3667 14.1196 8.65381 14.1196C8.94092 14.1196 9.17676 14.0273 9.36133 13.8428C9.5459 13.6582 9.63818 13.4224 9.63818 13.1353Z" fill="white"/>
</g>
<defs>
<clipPath id="clip0_1_57">
<rect width="15.75" height="15.75" fill="white" transform="translate(0.625 0.984375)"/>
</clipPath>
</defs>
</svg>
