<svg width="13" height="13" viewBox="0 0 13 13" fill="none" xmlns="http://www.w3.org/2000/svg">
<g clip-path="url(#clip0_1_30)">
<path d="M6.125 13.1226C7.24154 13.1066 8.26237 12.8354 9.1875 12.3091C10.1126 11.7668 10.8623 11.0171 11.4365 10.0601C11.9788 9.08708 12.25 8.06624 12.25 6.99756C12.25 5.92887 11.9788 4.90804 11.4365 3.93506C10.8623 2.97803 10.1126 2.22835 9.1875 1.68604C8.26237 1.15967 7.24154 0.888509 6.125 0.872559C5.00846 0.888509 3.98763 1.15967 3.0625 1.68604C2.13737 2.22835 1.3877 2.97803 0.813477 3.93506C0.271159 4.90804 0 5.92887 0 6.99756C0 8.06624 0.271159 9.08708 0.813477 10.0601C1.3877 11.0171 2.13737 11.7668 3.0625 12.3091C3.98763 12.8354 5.00846 13.1066 6.125 13.1226ZM5.16797 8.91162H5.74219V7.38037H5.16797C4.81706 7.34847 4.62565 7.15706 4.59375 6.80615C4.62565 6.45524 4.81706 6.26383 5.16797 6.23193H6.31641C6.66732 6.26383 6.85872 6.45524 6.89062 6.80615V8.91162H7.08203C7.43294 8.94352 7.62435 9.13493 7.65625 9.48584C7.62435 9.83675 7.43294 10.0282 7.08203 10.0601H5.16797C4.81706 10.0282 4.62565 9.83675 4.59375 9.48584C4.62565 9.13493 4.81706 8.94352 5.16797 8.91162ZM6.125 3.93506C6.34831 3.93506 6.53174 4.00684 6.67529 4.15039C6.81885 4.29395 6.89062 4.47738 6.89062 4.70068C6.89062 4.92399 6.81885 5.10742 6.67529 5.25098C6.53174 5.39453 6.34831 5.46631 6.125 5.46631C5.90169 5.46631 5.71826 5.39453 5.57471 5.25098C5.43115 5.10742 5.35938 4.92399 5.35938 4.70068C5.35938 4.47738 5.43115 4.29395 5.57471 4.15039C5.71826 4.00684 5.90169 3.93506 6.125 3.93506Z" fill="#1A56DB"/>
</g>
<defs>
<clipPath id="clip0_1_30">
<rect width="12.25" height="12.25" fill="white" transform="translate(0 0.609375)"/>
</clipPath>
</defs>
</svg>
