<svg xmlns="http://www.w3.org/2000/svg" version="1.0" width="200" height="200" viewBox="0 0 300.000000 300.000000" preserveAspectRatio="xMidYMid meet">

<g transform="translate(0.000000,300.000000) scale(0.100000,-0.100000)" fill="#2463EC" stroke="none">
<path d="M2285 2628 c-16 -6 -38 -18 -49 -27 -14 -12 -48 -17 -155 -21 l-136 -5 -21 -45 c-33 -69 -74 -160 -74 -165 0 -2 -12 -30 -26 -62 -14 -32 -34 -76 -44 -98 -9 -22 -27 -61 -39 -87 -11 -26 -21 -50 -21 -52 0 -3 -16 -39 -35 -80 -19 -42 -35 -78 -35 -80 0 -3 -16 -39 -35 -80 -19 -42 -35 -78 -35 -81 0 -2 -11 -28 -24 -57 -13 -29 -26 -61 -30 -70 -6 -21 -29 -24 -43 -5 -5 6 -15 30 -22 52 -13 38 -24 64 -86 200 -14 31 -25 58 -25 60 0 3 -9 25 -20 50 -46 104 -78 176 -100 230 -5 11 -20 46 -34 78 -14 32 -26 60 -26 62 0 2 -11 28 -24 57 -13 29 -36 81 -52 116 l-28 62 -330 -2 -331 -3 -7 -40 c-4 -22 -12 -74 -17 -115 -6 -41 -18 -118 -26 -170 -8 -52 -20 -126 -25 -165 -23 -152 -29 -194 -45 -295 -18 -116 -31 -202 -45 -300 -5 -36 -16 -110 -25 -165 -18 -111 -28 -181 -44 -300 -9 -68 -15 -84 -38 -104 -45 -38 -63 -73 -63 -118 0 -35 6 -48 34 -77 43 -42 82 -52 130 -32 50 21 64 37 75 88 9 36 7 50 -11 86 -18 38 -19 49 -9 82 6 20 11 54 11 75 0 21 4 54 9 74 5 20 15 72 21 116 6 44 16 109 21 145 5 36 14 94 19 130 5 36 16 110 25 165 17 104 29 184 45 295 5 36 16 110 25 165 9 55 20 129 26 165 5 36 12 83 15 105 4 22 11 46 16 53 8 9 65 12 222 12 155 0 217 -3 228 -12 13 -11 108 -206 108 -223 0 -2 11 -29 25 -60 14 -30 36 -80 50 -110 14 -31 25 -58 25 -60 0 -2 14 -35 31 -72 17 -38 39 -89 49 -114 10 -26 28 -67 39 -93 62 -138 103 -233 142 -326 12 -30 26 -59 29 -65 4 -5 10 -22 14 -37 10 -42 29 -34 48 20 15 44 67 164 124 290 13 29 24 54 24 57 0 2 16 38 35 79 19 42 35 78 35 80 0 3 16 39 35 80 19 42 35 78 35 80 0 3 16 39 35 80 19 42 35 78 35 81 0 2 12 30 26 62 15 32 33 74 42 93 8 19 23 53 33 74 11 22 19 45 19 51 0 30 37 45 113 45 66 0 79 -3 106 -26 54 -45 128 -45 178 2 24 22 27 33 28 84 0 44 -5 63 -20 80 -33 37 -88 53 -130 38z"/>
<path d="M2535 2354 c-45 -23 -65 -53 -65 -102 0 -46 13 -77 46 -104 23 -18 44 -86 44 -137 0 -17 4 -50 9 -73 6 -24 15 -79 21 -123 6 -44 18 -123 26 -175 29 -196 34 -228 49 -330 9 -58 20 -132 25 -165 5 -33 14 -91 19 -130 29 -196 43 -284 51 -328 6 -27 10 -71 10 -98 l0 -49 -212 2 -212 3 -12 80 c-7 44 -20 134 -29 200 -9 66 -20 149 -25 185 -5 36 -14 103 -20 150 -6 47 -17 128 -25 180 -7 52 -18 136 -25 185 -6 50 -15 117 -20 150 -5 33 -12 90 -16 128 -3 37 -9 67 -13 67 -3 0 -22 -35 -41 -78 -19 -42 -54 -120 -78 -172 -24 -52 -53 -115 -64 -140 -11 -25 -37 -81 -58 -125 -21 -44 -44 -96 -53 -115 -8 -19 -32 -71 -52 -115 -20 -44 -48 -105 -62 -135 -14 -30 -41 -89 -60 -130 -20 -41 -49 -104 -65 -140 -16 -36 -41 -91 -56 -123 -18 -41 -33 -59 -50 -64 -25 -6 -72 10 -72 26 0 5 -20 51 -44 102 -24 52 -55 119 -69 149 -14 30 -41 91 -62 135 -20 44 -45 98 -55 120 -10 22 -29 65 -43 95 -14 30 -41 89 -60 130 -19 41 -46 100 -60 130 -14 30 -41 91 -62 135 -117 254 -135 296 -135 306 0 5 -4 9 -9 9 -5 0 -14 -44 -20 -97 -7 -54 -16 -125 -21 -158 -5 -33 -14 -100 -20 -150 -7 -49 -18 -133 -25 -185 -7 -52 -19 -135 -25 -185 -13 -107 -24 -184 -45 -322 -8 -56 -15 -115 -15 -130 0 -15 -5 -45 -11 -66 l-10 -37 -63 0 c-46 0 -67 4 -77 16 -34 41 -99 55 -147 30 -51 -27 -66 -53 -66 -114 1 -51 4 -59 35 -84 45 -38 113 -39 168 -3 36 24 46 26 150 24 62 -1 115 1 118 4 3 4 9 41 13 84 5 43 13 107 19 143 11 74 25 175 41 305 6 50 18 133 25 185 8 52 17 122 20 155 11 111 23 121 56 48 12 -27 37 -82 56 -123 20 -41 43 -93 53 -115 10 -22 34 -76 54 -120 36 -78 53 -113 121 -260 18 -38 43 -92 55 -120 13 -27 36 -79 52 -115 16 -35 35 -68 41 -72 7 -4 62 -8 124 -8 l112 0 20 29 c12 16 21 33 21 37 0 5 13 36 29 69 16 33 43 92 61 130 18 39 43 93 55 120 41 88 92 199 115 250 12 28 35 77 50 110 15 33 42 92 60 130 44 97 45 100 61 100 9 0 15 -13 16 -35 4 -51 32 -267 43 -323 6 -27 10 -64 10 -82 0 -18 4 -55 10 -82 5 -26 17 -104 26 -173 9 -69 22 -158 28 -198 l12 -73 344 0 c243 0 346 4 348 11 3 7 -3 51 -11 98 -9 48 -20 120 -26 159 -6 40 -16 103 -21 140 -13 85 -37 247 -50 336 -6 37 -15 97 -20 135 -6 37 -17 112 -25 167 -8 55 -20 129 -25 165 -29 186 -40 262 -50 335 -6 44 -16 103 -22 130 -9 45 -8 55 11 88 40 71 21 151 -43 181 -43 20 -73 20 -111 0z"/>
</g>
</svg>