<svg width="35" height="36" viewBox="0 0 35 36" fill="none" xmlns="http://www.w3.org/2000/svg">
<path d="M0 18.1094C0 8.44439 7.83502 0.609375 17.5 0.609375C27.165 0.609375 35 8.44439 35 18.1094C35 27.7744 27.165 35.6094 17.5 35.6094C7.83502 35.6094 0 27.7744 0 18.1094Z" fill="#1A56DB"/>
<g clip-path="url(#clip0_1_17)">
<path d="M17.0898 11.4102C17.2174 11.4102 17.3359 11.4375 17.4453 11.4922L22.6133 13.6797C22.9232 13.8073 23.1692 14.0078 23.3515 14.2812C23.5521 14.5547 23.6523 14.8737 23.6523 15.2383C23.6705 16.168 23.5156 17.2617 23.1875 18.5195C22.8593 19.7773 22.2669 20.9987 21.4101 22.1836C20.5716 23.3867 19.3685 24.3802 17.8008 25.1641C17.3268 25.3828 16.8528 25.3828 16.3789 25.1641C14.8112 24.3802 13.608 23.3867 12.7695 22.1836C11.9127 20.9987 11.3203 19.7773 10.9922 18.5195C10.664 17.2617 10.5091 16.168 10.5273 15.2383C10.5273 14.8737 10.6276 14.5547 10.8281 14.2812C11.0104 14.0078 11.2565 13.8073 11.5664 13.6797L16.7343 11.4922C16.8437 11.4375 16.9622 11.4102 17.0898 11.4102ZM17.0898 13.2422V23.5781C18.3294 22.9401 19.3047 22.1289 20.0156 21.1445C20.7083 20.1602 21.2005 19.1484 21.4922 18.1094C21.7656 17.0521 21.9023 16.1042 21.9023 15.2656L17.0898 13.2422Z" fill="white"/>
</g>
<defs>
<clipPath id="clip0_1_17">
<rect width="14" height="14" fill="white" transform="translate(10.5 11.1094)"/>
</clipPath>
</defs>
</svg>
